<svg width="31" height="30" viewBox="0 0 31 30" fill="none" xmlns="http://www.w3.org/2000/svg">
<path fill-rule="evenodd" clip-rule="evenodd" d="M24.875 1.875V5.625H28.625V8.125H24.875V11.8625C24.875 11.8625 22.3875 11.875 22.375 11.8625V8.125H18.625C18.625 8.125 18.6375 5.6375 18.625 5.625H22.375V1.875H24.875ZM22.375 25.625H4.875V8.125H16.125V5.625H4.875C3.5 5.625 2.375 6.75 2.375 8.125V25.625C2.375 27 3.5 28.125 4.875 28.125H22.375C23.75 28.125 24.875 27 24.875 25.625V14.375H22.375V25.625ZM12.6375 21.6625L10.1875 18.7125L6.75 23.125H20.5L16.075 17.2375L12.6375 21.6625Z" fill="black" fill-opacity="0.54"/>
</svg>
