<svg width="32" height="32" viewBox="0 0 32 32" fill="none" xmlns="http://www.w3.org/2000/svg">
<path fill-rule="evenodd" clip-rule="evenodd" d="M24.002 14.3333V21L25.722 22.72C26.562 23.56 25.962 25 24.7754 25H7.21536C6.02869 25 5.44202 23.56 6.28202 22.72L8.00202 21V14.3333C8.00202 10.2267 10.1754 6.81333 14.002 5.90667V5C14.002 3.89333 14.8954 3 16.002 3C17.1087 3 18.002 3.89333 18.002 5V5.90667C21.8154 6.81333 24.002 10.24 24.002 14.3333ZM18.6687 26.3333C18.6687 27.8 17.4687 29 16.002 29C14.522 29 13.3354 27.8 13.3354 26.3333H18.6687Z" fill="#797C86"/>
</svg>
