<svg width="44" height="44" viewBox="0 0 44 44" fill="none" xmlns="http://www.w3.org/2000/svg">
<circle cx="22" cy="22" r="22" fill="#EFF0F4"/>
<path fill-rule="evenodd" clip-rule="evenodd" d="M30.002 20.3333V27L31.722 28.72C32.562 29.56 31.962 31 30.7754 31H13.2154C12.0287 31 11.442 29.56 12.282 28.72L14.002 27V20.3333C14.002 16.2267 16.1754 12.8133 20.002 11.9067V11C20.002 9.89333 20.8954 9 22.002 9C23.1087 9 24.002 9.89333 24.002 11V11.9067C27.8154 12.8133 30.002 16.24 30.002 20.3333ZM24.6687 32.3333C24.6687 33.8 23.4687 35 22.002 35C20.522 35 19.3354 33.8 19.3354 32.3333H24.6687Z" fill="#0D3DE5"/>
</svg>
