<svg width="23" height="22" viewBox="0 0 23 22" fill="none" xmlns="http://www.w3.org/2000/svg">
<path d="M18.481 11.9166C18.5209 11.6127 18.5424 11.3065 18.5452 11C18.5424 10.6934 18.5209 10.3873 18.481 10.0833L20.4656 8.52955C20.5552 8.4611 20.6164 8.36201 20.6376 8.25123C20.6587 8.14046 20.6383 8.02578 20.5802 7.92914L18.701 4.67039C18.6466 4.57264 18.5583 4.49818 18.4527 4.46103C18.3472 4.42388 18.2317 4.42662 18.1281 4.46872L15.786 5.41289C15.2987 5.04094 14.7657 4.73288 14.2002 4.49622L13.8473 2.00747C13.8317 1.89734 13.7766 1.79663 13.6923 1.72411C13.608 1.65159 13.5001 1.61221 13.3889 1.6133H9.62142C9.51021 1.61221 9.40239 1.65159 9.31806 1.72411C9.23374 1.79663 9.17866 1.89734 9.16309 2.00747L8.81017 4.49622C8.2439 4.73141 7.71078 5.03957 7.22434 5.41289L4.87309 4.46872C4.76944 4.42662 4.65396 4.42388 4.54843 4.46103C4.4429 4.49818 4.3546 4.57264 4.30017 4.67039L2.42101 7.92914C2.3629 8.02578 2.34245 8.14046 2.36359 8.25123C2.38473 8.36201 2.44597 8.4611 2.53559 8.52955L4.51559 10.0833C4.47582 10.3873 4.45439 10.6934 4.45142 11C4.45424 11.3065 4.47566 11.6127 4.51559 11.9166L2.53559 13.4704C2.44597 13.5388 2.38473 13.6379 2.36359 13.7487C2.34245 13.8595 2.3629 13.9742 2.42101 14.0708L4.30017 17.3296C4.3546 17.4273 4.4429 17.5018 4.54843 17.5389C4.65396 17.5761 4.76944 17.5733 4.87309 17.5312L7.21517 16.5871C7.70252 16.959 8.23546 17.2671 8.80101 17.5037L9.15392 19.9925C9.16949 20.1026 9.22457 20.2033 9.3089 20.2758C9.39322 20.3483 9.50104 20.3877 9.61226 20.3866H13.3706C13.4818 20.3877 13.5896 20.3483 13.674 20.2758C13.7583 20.2033 13.8134 20.1026 13.8289 19.9925L14.1818 17.5037C14.7481 17.2685 15.2812 16.9604 15.7677 16.5871L18.1098 17.5312C18.2134 17.5733 18.3289 17.5761 18.4344 17.5389C18.5399 17.5018 18.6282 17.4273 18.6827 17.3296L20.5618 14.0708C20.62 13.9742 20.6404 13.8595 20.6193 13.7487C20.5981 13.6379 20.5369 13.5388 20.4473 13.4704L18.481 11.9166ZM11.5006 14.2908C10.8495 14.2917 10.2128 14.0995 9.67106 13.7384C9.12928 13.3774 8.70677 12.8637 8.45699 12.2625C8.20721 11.6613 8.14139 10.9994 8.26785 10.3608C8.39431 9.72211 8.70737 9.13531 9.16742 8.67462C9.62746 8.21393 10.2138 7.90006 10.8523 7.77271C11.4908 7.64536 12.1527 7.71026 12.7543 7.9592C13.3559 8.20814 13.8701 8.62993 14.2319 9.1712C14.5937 9.71248 14.7868 10.3489 14.7868 11C14.7874 11.4319 14.7029 11.8597 14.538 12.259C14.3731 12.6582 14.1312 13.021 13.8259 13.3267C13.5207 13.6323 13.1582 13.8748 12.7592 14.0402C12.3602 14.2056 11.9325 14.2908 11.5006 14.2908V14.2908Z" stroke="#797C86" stroke-width="1.5" stroke-linecap="round" stroke-linejoin="round"/>
</svg>
