<svg width="24" height="18" viewBox="0 0 24 18" fill="none" xmlns="http://www.w3.org/2000/svg">
<path fill-rule="evenodd" clip-rule="evenodd" d="M9.16602 1.5C6.26352 1.5 3.91602 3.8475 3.91602 6.75C3.91602 10.6875 9.16602 16.5 9.16602 16.5C9.16602 16.5 14.416 10.6875 14.416 6.75C14.416 3.8475 12.0685 1.5 9.16602 1.5ZM5.41602 6.75C5.41602 4.68 7.09602 3 9.16602 3C11.236 3 12.916 4.68 12.916 6.75C12.916 8.91 10.756 12.1425 9.16602 14.16C7.60602 12.1575 5.41602 8.8875 5.41602 6.75ZM7.29102 6.75C7.29102 5.71447 8.13048 4.875 9.16602 4.875C9.83589 4.875 10.4549 5.23237 10.7898 5.8125C11.1247 6.39263 11.1247 7.10737 10.7898 7.6875C10.4549 8.26763 9.83589 8.625 9.16602 8.625C8.13048 8.625 7.29102 7.78553 7.29102 6.75Z" fill="white" fill-opacity="0.81"/>
</svg>
