<svg width="21" height="21" viewBox="0 0 21 21" fill="none" xmlns="http://www.w3.org/2000/svg">
<path d="M5.22222 5.22222H15.7778M5.22222 10.5H15.7778M5.22222 15.7778H11.5556M17.8889 1H3.11111C2.55121 1 2.01424 1.22242 1.61833 1.61833C1.22242 2.01424 1 2.55121 1 3.11111V17.8889C1 18.4488 1.22242 18.9858 1.61833 19.3817C2.01424 19.7776 2.55121 20 3.11111 20H17.8889C18.4488 20 18.9858 19.7776 19.3817 19.3817C19.7776 18.9858 20 18.4488 20 17.8889V3.11111C20 2.55121 19.7776 2.01424 19.3817 1.61833C18.9858 1.22242 18.4488 1 17.8889 1Z" stroke="#797C86" stroke-width="1.5" stroke-linecap="round" stroke-linejoin="round"/>
</svg>
